<?xml version="1.0" encoding="utf-8"?>
<!-- Generator: Adobe Illustrator 15.0.0, SVG Export Plug-In . SVG Version: 6.00 Build 0)  -->
<!DOCTYPE svg PUBLIC "-//W3C//DTD SVG 1.1//EN" "http://www.w3.org/Graphics/SVG/1.1/DTD/svg11.dtd">
<svg xmlns="http://www.w3.org/2000/svg" 
    xmlns:xlink="http://www.w3.org/1999/xlink" version="1.1" x="0px" y="0px" viewBox="0 0 100 125" 
    enable-background="new 0 0 100 100" xml:space="preserve">
    <path opacity="0.8" fill="#5925BA" stroke="#5925BA" stroke-width="2" stroke-miterlimit="10" 
    d="M22.4,55.7l-4-4C19.3,69.5,34,83.6,52,83.6c18.5,0,33.6-15.1,33.6-33.6S70.5,16.4,52,16.4  c-9.1,0-17.7,3.6-24.1,10.1l-2.1,2.1l-4.2-4.1l2.1-2.1c7.5-7.7,17.6-11.9,28.3-11.9c21.8,0,39.5,17.7,39.5,39.5S73.8,89.5,52,89.5  c-21.2,0-38.6-16.8-39.5-37.9l-4.1,4.1l-4.2-4.2l11.2-11.2l11.2,11.2L22.4,55.7z M65.1,39.3v5H71V71H32.9V44.3h5.9v-5  c0-7.2,5.9-13.1,13.1-13.1S65.1,32.1,65.1,39.3z M44.8,44.3h14.4v-5c0-4-3.2-7.2-7.2-7.2s-7.2,3.2-7.2,7.2V44.3z M65.1,50.3H38.9  v14.8h26.2V50.3z"/>
</svg>